# xmcd
#
# Track frame offsets:
# 150
# 7891
# 30826
# 41847
# 63982
# 89453
# 110356
# 128315
# 146594
# 164492
# 190459
# 206695
# 219624
# 230941
# 245980
#
# Disc length: 3433 seconds
#
# Revision: 1
# Processed by: cddbd v1.5.2PL0 Copyright (c) Steve Scherf et al.
# Submitted via: CedeCatalogueitor 2.6.0.6 http://personales.ya.com/cdcatalogueitor
#
DISCID=d70d670f
DTITLE=April Fool's Day - 9th
DYEAR=1900
DGENRE=
TTITLE0=J
TTITLE1=Xj
TTITLE2=Je
TTITLE3=Jei
TTITLE4=Ja´
TTITLE5=Jei
TTITLE6=Je`
TTITLE7=L
TTITLE8=L
TTITLE9=Sl
TTITLE10=Le
TTITLE11=Et
TTITLE12=G
TTITLE13=E
TTITLE14=Yeyye
EXTD=
EXTT0=
EXTT1=
EXTT2=
EXTT3=
EXTT4=
EXTT5=
EXTT6=
EXTT7=
EXTT8=
EXTT9=
EXTT10=
EXTT11=
EXTT12=
EXTT13=
EXTT14=
PLAYORDER=
